<mxfile host="app.diagrams.net" modified="2021-04-18T13:58:54.806Z" agent="5.0 (Windows NT 10.0; Win64; x64) AppleWebKit/537.36 (KHTML, like Gecko) Chrome/90.0.4430.72 Safari/537.36" etag="ENvomsth_q-cFxNJwYB3" version="14.6.0" type="github">
  <diagram id="RAytsHk9yZWYYMR1CLl6" name="Page-1">
    <mxGraphModel dx="1422" dy="772" grid="1" gridSize="10" guides="1" tooltips="1" connect="1" arrows="1" fold="1" page="1" pageScale="1" pageWidth="827" pageHeight="1169" math="0" shadow="0">
      <root>
        <mxCell id="0" />
        <mxCell id="1" parent="0" />
        <mxCell id="cfBZWCp-nfRq4XjDMekp-7" value="" style="group" parent="1" vertex="1" connectable="0">
          <mxGeometry x="120" y="190" width="180" height="30" as="geometry" />
        </mxCell>
        <mxCell id="cfBZWCp-nfRq4XjDMekp-1" value="" style="whiteSpace=wrap;html=1;aspect=fixed;" parent="cfBZWCp-nfRq4XjDMekp-7" vertex="1">
          <mxGeometry width="30" height="30" as="geometry" />
        </mxCell>
        <mxCell id="cfBZWCp-nfRq4XjDMekp-2" value="" style="whiteSpace=wrap;html=1;aspect=fixed;" parent="cfBZWCp-nfRq4XjDMekp-7" vertex="1">
          <mxGeometry x="30" width="30" height="30" as="geometry" />
        </mxCell>
        <mxCell id="cfBZWCp-nfRq4XjDMekp-3" value="" style="whiteSpace=wrap;html=1;aspect=fixed;" parent="cfBZWCp-nfRq4XjDMekp-7" vertex="1">
          <mxGeometry x="60" width="30" height="30" as="geometry" />
        </mxCell>
        <mxCell id="cfBZWCp-nfRq4XjDMekp-4" value="" style="whiteSpace=wrap;html=1;aspect=fixed;" parent="cfBZWCp-nfRq4XjDMekp-7" vertex="1">
          <mxGeometry x="90" width="30" height="30" as="geometry" />
        </mxCell>
        <mxCell id="cfBZWCp-nfRq4XjDMekp-5" value="" style="whiteSpace=wrap;html=1;aspect=fixed;" parent="cfBZWCp-nfRq4XjDMekp-7" vertex="1">
          <mxGeometry x="120" width="30" height="30" as="geometry" />
        </mxCell>
        <mxCell id="cfBZWCp-nfRq4XjDMekp-6" value="" style="whiteSpace=wrap;html=1;aspect=fixed;" parent="cfBZWCp-nfRq4XjDMekp-7" vertex="1">
          <mxGeometry x="150" width="30" height="30" as="geometry" />
        </mxCell>
        <mxCell id="cfBZWCp-nfRq4XjDMekp-8" value="" style="group" parent="1" vertex="1" connectable="0">
          <mxGeometry x="120" y="220" width="180" height="30" as="geometry" />
        </mxCell>
        <mxCell id="cfBZWCp-nfRq4XjDMekp-9" value="" style="whiteSpace=wrap;html=1;aspect=fixed;" parent="cfBZWCp-nfRq4XjDMekp-8" vertex="1">
          <mxGeometry width="30" height="30" as="geometry" />
        </mxCell>
        <mxCell id="cfBZWCp-nfRq4XjDMekp-10" value="" style="whiteSpace=wrap;html=1;aspect=fixed;" parent="cfBZWCp-nfRq4XjDMekp-8" vertex="1">
          <mxGeometry x="30" width="30" height="30" as="geometry" />
        </mxCell>
        <mxCell id="cfBZWCp-nfRq4XjDMekp-11" value="" style="whiteSpace=wrap;html=1;aspect=fixed;" parent="cfBZWCp-nfRq4XjDMekp-8" vertex="1">
          <mxGeometry x="60" width="30" height="30" as="geometry" />
        </mxCell>
        <mxCell id="cfBZWCp-nfRq4XjDMekp-12" value="" style="whiteSpace=wrap;html=1;aspect=fixed;" parent="cfBZWCp-nfRq4XjDMekp-8" vertex="1">
          <mxGeometry x="90" width="30" height="30" as="geometry" />
        </mxCell>
        <mxCell id="cfBZWCp-nfRq4XjDMekp-13" value="" style="whiteSpace=wrap;html=1;aspect=fixed;" parent="cfBZWCp-nfRq4XjDMekp-8" vertex="1">
          <mxGeometry x="120" width="30" height="30" as="geometry" />
        </mxCell>
        <mxCell id="cfBZWCp-nfRq4XjDMekp-14" value="" style="whiteSpace=wrap;html=1;aspect=fixed;" parent="cfBZWCp-nfRq4XjDMekp-8" vertex="1">
          <mxGeometry x="150" width="30" height="30" as="geometry" />
        </mxCell>
        <mxCell id="cfBZWCp-nfRq4XjDMekp-15" value="" style="group" parent="1" vertex="1" connectable="0">
          <mxGeometry x="120" y="250" width="180" height="30" as="geometry" />
        </mxCell>
        <mxCell id="cfBZWCp-nfRq4XjDMekp-16" value="" style="whiteSpace=wrap;html=1;aspect=fixed;" parent="cfBZWCp-nfRq4XjDMekp-15" vertex="1">
          <mxGeometry width="30" height="30" as="geometry" />
        </mxCell>
        <mxCell id="cfBZWCp-nfRq4XjDMekp-17" value="" style="whiteSpace=wrap;html=1;aspect=fixed;" parent="cfBZWCp-nfRq4XjDMekp-15" vertex="1">
          <mxGeometry x="30" width="30" height="30" as="geometry" />
        </mxCell>
        <mxCell id="cfBZWCp-nfRq4XjDMekp-18" value="" style="whiteSpace=wrap;html=1;aspect=fixed;" parent="cfBZWCp-nfRq4XjDMekp-15" vertex="1">
          <mxGeometry x="60" width="30" height="30" as="geometry" />
        </mxCell>
        <mxCell id="cfBZWCp-nfRq4XjDMekp-19" value="" style="whiteSpace=wrap;html=1;aspect=fixed;" parent="cfBZWCp-nfRq4XjDMekp-15" vertex="1">
          <mxGeometry x="90" width="30" height="30" as="geometry" />
        </mxCell>
        <mxCell id="cfBZWCp-nfRq4XjDMekp-20" value="" style="whiteSpace=wrap;html=1;aspect=fixed;" parent="cfBZWCp-nfRq4XjDMekp-15" vertex="1">
          <mxGeometry x="120" width="30" height="30" as="geometry" />
        </mxCell>
        <mxCell id="cfBZWCp-nfRq4XjDMekp-21" value="" style="whiteSpace=wrap;html=1;aspect=fixed;" parent="cfBZWCp-nfRq4XjDMekp-15" vertex="1">
          <mxGeometry x="150" width="30" height="30" as="geometry" />
        </mxCell>
        <mxCell id="cfBZWCp-nfRq4XjDMekp-22" value="" style="group" parent="1" vertex="1" connectable="0">
          <mxGeometry x="120" y="280" width="180" height="30" as="geometry" />
        </mxCell>
        <mxCell id="cfBZWCp-nfRq4XjDMekp-23" value="" style="whiteSpace=wrap;html=1;aspect=fixed;" parent="cfBZWCp-nfRq4XjDMekp-22" vertex="1">
          <mxGeometry width="30" height="30" as="geometry" />
        </mxCell>
        <mxCell id="cfBZWCp-nfRq4XjDMekp-24" value="" style="whiteSpace=wrap;html=1;aspect=fixed;" parent="cfBZWCp-nfRq4XjDMekp-22" vertex="1">
          <mxGeometry x="30" width="30" height="30" as="geometry" />
        </mxCell>
        <mxCell id="cfBZWCp-nfRq4XjDMekp-25" value="" style="whiteSpace=wrap;html=1;aspect=fixed;" parent="cfBZWCp-nfRq4XjDMekp-22" vertex="1">
          <mxGeometry x="60" width="30" height="30" as="geometry" />
        </mxCell>
        <mxCell id="cfBZWCp-nfRq4XjDMekp-26" value="" style="whiteSpace=wrap;html=1;aspect=fixed;" parent="cfBZWCp-nfRq4XjDMekp-22" vertex="1">
          <mxGeometry x="90" width="30" height="30" as="geometry" />
        </mxCell>
        <mxCell id="cfBZWCp-nfRq4XjDMekp-27" value="" style="whiteSpace=wrap;html=1;aspect=fixed;" parent="cfBZWCp-nfRq4XjDMekp-22" vertex="1">
          <mxGeometry x="120" width="30" height="30" as="geometry" />
        </mxCell>
        <mxCell id="cfBZWCp-nfRq4XjDMekp-28" value="" style="whiteSpace=wrap;html=1;aspect=fixed;" parent="cfBZWCp-nfRq4XjDMekp-22" vertex="1">
          <mxGeometry x="150" width="30" height="30" as="geometry" />
        </mxCell>
        <mxCell id="cfBZWCp-nfRq4XjDMekp-29" value="" style="group" parent="1" vertex="1" connectable="0">
          <mxGeometry x="120" y="310" width="180" height="30" as="geometry" />
        </mxCell>
        <mxCell id="cfBZWCp-nfRq4XjDMekp-30" value="" style="whiteSpace=wrap;html=1;aspect=fixed;" parent="cfBZWCp-nfRq4XjDMekp-29" vertex="1">
          <mxGeometry width="30" height="30" as="geometry" />
        </mxCell>
        <mxCell id="cfBZWCp-nfRq4XjDMekp-31" value="" style="whiteSpace=wrap;html=1;aspect=fixed;" parent="cfBZWCp-nfRq4XjDMekp-29" vertex="1">
          <mxGeometry x="30" width="30" height="30" as="geometry" />
        </mxCell>
        <mxCell id="cfBZWCp-nfRq4XjDMekp-32" value="" style="whiteSpace=wrap;html=1;aspect=fixed;" parent="cfBZWCp-nfRq4XjDMekp-29" vertex="1">
          <mxGeometry x="60" width="30" height="30" as="geometry" />
        </mxCell>
        <mxCell id="cfBZWCp-nfRq4XjDMekp-33" value="" style="whiteSpace=wrap;html=1;aspect=fixed;" parent="cfBZWCp-nfRq4XjDMekp-29" vertex="1">
          <mxGeometry x="90" width="30" height="30" as="geometry" />
        </mxCell>
        <mxCell id="cfBZWCp-nfRq4XjDMekp-34" value="" style="whiteSpace=wrap;html=1;aspect=fixed;" parent="cfBZWCp-nfRq4XjDMekp-29" vertex="1">
          <mxGeometry x="120" width="30" height="30" as="geometry" />
        </mxCell>
        <mxCell id="cfBZWCp-nfRq4XjDMekp-35" value="" style="whiteSpace=wrap;html=1;aspect=fixed;" parent="cfBZWCp-nfRq4XjDMekp-29" vertex="1">
          <mxGeometry x="150" width="30" height="30" as="geometry" />
        </mxCell>
        <mxCell id="cfBZWCp-nfRq4XjDMekp-37" value="" style="group" parent="1" vertex="1" connectable="0">
          <mxGeometry x="120" y="340" width="180" height="30" as="geometry" />
        </mxCell>
        <mxCell id="cfBZWCp-nfRq4XjDMekp-38" value="" style="whiteSpace=wrap;html=1;aspect=fixed;" parent="cfBZWCp-nfRq4XjDMekp-37" vertex="1">
          <mxGeometry width="30" height="30" as="geometry" />
        </mxCell>
        <mxCell id="cfBZWCp-nfRq4XjDMekp-39" value="" style="whiteSpace=wrap;html=1;aspect=fixed;" parent="cfBZWCp-nfRq4XjDMekp-37" vertex="1">
          <mxGeometry x="30" width="30" height="30" as="geometry" />
        </mxCell>
        <mxCell id="cfBZWCp-nfRq4XjDMekp-40" value="" style="whiteSpace=wrap;html=1;aspect=fixed;" parent="cfBZWCp-nfRq4XjDMekp-37" vertex="1">
          <mxGeometry x="60" width="30" height="30" as="geometry" />
        </mxCell>
        <mxCell id="cfBZWCp-nfRq4XjDMekp-41" value="" style="whiteSpace=wrap;html=1;aspect=fixed;" parent="cfBZWCp-nfRq4XjDMekp-37" vertex="1">
          <mxGeometry x="90" width="30" height="30" as="geometry" />
        </mxCell>
        <mxCell id="cfBZWCp-nfRq4XjDMekp-42" value="" style="whiteSpace=wrap;html=1;aspect=fixed;" parent="cfBZWCp-nfRq4XjDMekp-37" vertex="1">
          <mxGeometry x="120" width="30" height="30" as="geometry" />
        </mxCell>
        <mxCell id="cfBZWCp-nfRq4XjDMekp-43" value="" style="whiteSpace=wrap;html=1;aspect=fixed;" parent="cfBZWCp-nfRq4XjDMekp-37" vertex="1">
          <mxGeometry x="150" width="30" height="30" as="geometry" />
        </mxCell>
        <mxCell id="cfBZWCp-nfRq4XjDMekp-45" value="如上图，有多少个正方形？" style="text;html=1;align=center;verticalAlign=middle;resizable=0;points=[];autosize=1;" parent="1" vertex="1">
          <mxGeometry x="130" y="380" width="160" height="20" as="geometry" />
        </mxCell>
        <mxCell id="cfBZWCp-nfRq4XjDMekp-46" value="6 × 6" style="text;html=1;align=center;verticalAlign=middle;resizable=0;points=[];autosize=1;" parent="1" vertex="1">
          <mxGeometry x="110" y="470" width="40" height="20" as="geometry" />
        </mxCell>
        <mxCell id="cfBZWCp-nfRq4XjDMekp-47" value="+ 3 × 3" style="text;html=1;align=center;verticalAlign=middle;resizable=0;points=[];autosize=1;" parent="1" vertex="1">
          <mxGeometry x="230" y="470" width="50" height="20" as="geometry" />
        </mxCell>
        <mxCell id="cfBZWCp-nfRq4XjDMekp-48" value="&amp;nbsp;+ 2 × 2 + 1" style="text;html=1;align=center;verticalAlign=middle;resizable=0;points=[];autosize=1;" parent="1" vertex="1">
          <mxGeometry x="270" y="470" width="80" height="20" as="geometry" />
        </mxCell>
        <mxCell id="cfBZWCp-nfRq4XjDMekp-49" value="&amp;nbsp;+ 5 × 5" style="text;html=1;align=center;verticalAlign=middle;resizable=0;points=[];autosize=1;" parent="1" vertex="1">
          <mxGeometry x="134" y="470" width="60" height="20" as="geometry" />
        </mxCell>
        <mxCell id="cfBZWCp-nfRq4XjDMekp-50" value="+ 4 × 4" style="text;html=1;align=center;verticalAlign=middle;resizable=0;points=[];autosize=1;" parent="1" vertex="1">
          <mxGeometry x="185" y="470" width="50" height="20" as="geometry" />
        </mxCell>
      </root>
    </mxGraphModel>
  </diagram>
</mxfile>
